<svg xmlns="http://www.w3.org/2000/svg" xmlns:xlink="http://www.w3.org/1999/xlink" viewBox="0 0 527.11 114.33"><defs><style>.cls-1{fill:url(#linear-gradient);}.cls-14,.cls-17,.cls-18,.cls-2,.cls-3,.cls-8{fill:none;}.cls-2,.cls-3,.cls-8{stroke:#a6a8ab;stroke-linecap:round;}.cls-17,.cls-18,.cls-2,.cls-3,.cls-8{stroke-miterlimit:10;}.cls-2,.cls-3{stroke-width:0.25px;}.cls-3{opacity:0.4;}.cls-4,.cls-5,.cls-7{font-size:5.5px;opacity:0.8;}.cls-15,.cls-4,.cls-5,.cls-7{fill:#a6a8ab;}.cls-11,.cls-4,.cls-5,.cls-7,.cls-9{font-family:Avenir-Medium, Avenir;font-weight:500;}.cls-4{letter-spacing:0.1em;}.cls-6{letter-spacing:-0.02em;}.cls-7{letter-spacing:0.1em;}.cls-8{stroke-width:0.5px;}.cls-11,.cls-9{opacity:0.8;font-size:7.2px;fill:#fff;}.cls-9{letter-spacing:-0.06em;}.cls-10{letter-spacing:0em;}.cls-12{letter-spacing:-0.02em;}.cls-13{letter-spacing:-0.1em;}.cls-16,.cls-18{opacity:0.2;}.cls-17,.cls-18{stroke:#fff;stroke-width:0.75px;}</style><linearGradient id="linear-gradient" x1="263.55" y1="114.21" x2="263.55" y2="0.13" gradientUnits="userSpaceOnUse"><stop offset="0" stop-color="#262626"/><stop offset="0" stop-color="#252525"/><stop offset="0.06" stop-color="#141414"/><stop offset="0.13" stop-color="#090909"/><stop offset="0.23" stop-color="#020202"/><stop offset="0.5"/></linearGradient></defs><g id="Layer_2" data-name="Layer 2"><g id="Layer_1-2" data-name="Layer 1"><path class="cls-1" d="M.13.13H527a0,0,0,0,1,0,0v109a5.07,5.07,0,0,1-5.07,5.07H6.32A6.2,6.2,0,0,1,.13,108V.13A0,0,0,0,1,.13.13Z"/><line class="cls-2" x1="0.13" y1="0.13" x2="526.98" y2="0.13"/><line class="cls-2" x1="114.21" y1="71.13" x2="526.98" y2="71.13"/><line class="cls-3" x1="114.21" y1="65.15" x2="419.16" y2="65.15"/><line class="cls-3" x1="114.21" y1="59.17" x2="419.16" y2="59.17"/><line class="cls-3" x1="114.21" y1="53.19" x2="419.16" y2="53.19"/><line class="cls-3" x1="114.21" y1="47.21" x2="419.16" y2="47.21"/><line class="cls-3" x1="114.21" y1="41.23" x2="419.16" y2="41.23"/><line class="cls-3" x1="114.21" y1="35.25" x2="419.16" y2="35.25"/><line class="cls-3" x1="114.21" y1="23.29" x2="419.16" y2="23.29"/><line class="cls-3" x1="114.21" y1="11.33" x2="419.16" y2="11.33"/><line class="cls-3" x1="114.21" y1="17.31" x2="419.16" y2="17.31"/><line class="cls-3" x1="114.21" y1="5.36" x2="419.16" y2="5.36"/><line class="cls-3" x1="114.21" y1="29.27" x2="419.16" y2="29.27"/><text class="cls-4" transform="translate(471.14 86.08)">0</text><text class="cls-5" transform="translate(454.92 101.71)">Ste<tspan class="cls-6" x="8.16" y="0">r</tspan><tspan x="10.1" y="0">eo Imager</tspan></text><text class="cls-7" transform="translate(437.65 93.94)">M</text><text class="cls-4" transform="translate(504.07 93.94)">S</text><line class="cls-8" x1="445.5" y1="92.21" x2="499.83" y2="92.21"/><text class="cls-9" transform="translate(15.84 14.09)">V<tspan class="cls-10" x="4.14" y="0">elocity</tspan></text><text class="cls-11" transform="translate(74.02 14.09)">St<tspan class="cls-12" x="6.67" y="0">r</tspan><tspan class="cls-10" x="9.2" y="0">etch</tspan></text><text class="cls-11" transform="translate(20.58 71.13)">Pitch</text><text class="cls-11" transform="translate(70.05 71.13)">Fine <tspan class="cls-13" x="15.87" y="0">T</tspan><tspan x="19.27" y="0">une</tspan></text><line class="cls-3" x1="57.17" y1="0.13" x2="57.17" y2="114.21"/><line class="cls-3" x1="122.4" y1="0.13" x2="122.4" y2="71.13"/><line class="cls-3" x1="130.01" y1="0.13" x2="130.01" y2="71.13"/><line class="cls-3" x1="137.62" y1="0.13" x2="137.62" y2="71.13"/><line class="cls-3" x1="145.23" y1="0.13" x2="145.23" y2="71.13"/><line class="cls-3" x1="152.84" y1="0.13" x2="152.84" y2="71.13"/><line class="cls-3" x1="160.45" y1="0.13" x2="160.45" y2="71.13"/><line class="cls-3" x1="168.06" y1="0.13" x2="168.06" y2="71.13"/><line class="cls-3" x1="175.67" y1="0.13" x2="175.67" y2="71.13"/><line class="cls-3" x1="183.27" y1="0.13" x2="183.27" y2="71.13"/><line class="cls-3" x1="190.88" y1="0.13" x2="190.88" y2="71.13"/><line class="cls-3" x1="198.49" y1="0.13" x2="198.49" y2="71.13"/><line class="cls-3" x1="206.1" y1="0.13" x2="206.1" y2="71.13"/><line class="cls-3" x1="213.71" y1="0.13" x2="213.71" y2="71.13"/><line class="cls-3" x1="221.32" y1="0.13" x2="221.32" y2="71.13"/><line class="cls-3" x1="228.93" y1="0.13" x2="228.93" y2="71.13"/><line class="cls-3" x1="244.15" y1="0.13" x2="244.15" y2="71.13"/><line class="cls-3" x1="236.54" y1="0.65" x2="236.54" y2="71.66"/><line class="cls-3" x1="251.76" y1="0.13" x2="251.76" y2="71.13"/><line class="cls-3" x1="259.37" y1="0.13" x2="259.37" y2="71.13"/><line class="cls-3" x1="266.97" y1="0.13" x2="266.97" y2="71.13"/><line class="cls-3" x1="274.58" y1="0.13" x2="274.58" y2="71.13"/><line class="cls-3" x1="282.19" y1="0.13" x2="282.19" y2="71.13"/><line class="cls-3" x1="289.8" y1="0.13" x2="289.8" y2="71.13"/><line class="cls-3" x1="297.41" y1="0.13" x2="297.41" y2="71.13"/><line class="cls-3" x1="305.02" y1="0.13" x2="305.02" y2="71.13"/><line class="cls-3" x1="312.63" y1="0.13" x2="312.63" y2="71.13"/><line class="cls-3" x1="320.24" y1="0.13" x2="320.24" y2="71.13"/><line class="cls-3" x1="327.85" y1="0.13" x2="327.85" y2="71.13"/><line class="cls-3" x1="335.46" y1="0.13" x2="335.46" y2="71.13"/><line class="cls-3" x1="343.07" y1="0.13" x2="343.07" y2="71.13"/><line class="cls-3" x1="350.67" y1="0.13" x2="350.67" y2="71.13"/><line class="cls-3" x1="358.28" y1="0.13" x2="358.28" y2="71.13"/><line class="cls-3" x1="365.89" y1="0.13" x2="365.89" y2="71.13"/><line class="cls-3" x1="373.5" y1="0.13" x2="373.5" y2="71.13"/><line class="cls-3" x1="381.11" y1="0.13" x2="381.11" y2="71.13"/><line class="cls-3" x1="388.72" y1="0.13" x2="388.72" y2="71.13"/><line class="cls-3" x1="396.33" y1="0.13" x2="396.33" y2="71.13"/><line class="cls-3" x1="403.94" y1="0.13" x2="403.94" y2="71.13"/><line class="cls-3" x1="411.55" y1="0.13" x2="411.55" y2="71.13"/><line class="cls-3" x1="419.16" y1="0.13" x2="419.16" y2="114.21"/><line class="cls-3" x1="114.21" y1="57.17" x2="0.13" y2="57.17"/><line class="cls-3" x1="114.21" y1="0.13" x2="114.21" y2="114.21"/><rect class="cls-14" x="114.21" y="71.13" width="304.95" height="43.08"/><rect class="cls-14" x="419.16" y="71.13" width="107.82" height="43.08"/><text class="cls-5" transform="translate(378.06 94.15)">Reverse</text><rect x="368.7" y="89.09" width="6.25" height="6.25"/><text class="cls-4" transform="translate(265.57 89.09)">Pan</text><line class="cls-8" x1="243.55" y1="95.22" x2="297.87" y2="95.22"/><circle class="cls-15" cx="270.71" cy="95.22" r="1.68"/><text class="cls-7" transform="translate(235.69 97.25)">M</text><text class="cls-4" transform="translate(302.11 97.25)">S</text><rect class="cls-14" x="419.16" y="0.13" width="107.82" height="71.01"/><g class="cls-16"><circle class="cls-17" cx="132.62" cy="92.17" r="4.51"/></g><g class="cls-16"><circle class="cls-17" cx="132.62" cy="92.17" r="1.95"/></g><line class="cls-18" x1="132.62" y1="89.49" x2="132.62" y2="91.63"/><g class="cls-16"><circle class="cls-17" cx="146.49" cy="92.17" r="4.51"/></g><g class="cls-16"><path class="cls-17" d="M144.9,93.3a1.93,1.93,0,0,1-.36-1.13,2,2,0,1,1,3.57,1.09"/></g><line class="cls-18" x1="145.2" y1="92.51" x2="145.2" y2="93.74"/><line class="cls-18" x1="147.91" y1="92.51" x2="147.91" y2="93.74"/></g></g></svg>