<svg xmlns="http://www.w3.org/2000/svg" xmlns:xlink="http://www.w3.org/1999/xlink" viewBox="0 0 527.11 114.33"><defs><style>.cls-1{fill:url(#linear-gradient);}.cls-10,.cls-2,.cls-5,.cls-6,.cls-8,.cls-9{fill:none;stroke-miterlimit:10;}.cls-10,.cls-2,.cls-8,.cls-9{stroke:#a6a8ab;stroke-linecap:round;}.cls-2,.cls-8{stroke-width:0.25px;}.cls-3{font-size:5.5px;fill:#a6a8ab;opacity:0.8;}.cls-3,.cls-7{font-family:Avenir-Medium, Avenir;font-weight:500;}.cls-4,.cls-6{opacity:0.2;}.cls-5,.cls-6{stroke:#fff;stroke-width:0.75px;}.cls-7{opacity:0.8;font-size:7.2px;fill:#fff;}.cls-8{opacity:0.4;}.cls-9{stroke-width:0.15px;}</style><linearGradient id="linear-gradient" x1="263.55" y1="114.21" x2="263.55" y2="0.21" gradientUnits="userSpaceOnUse"><stop offset="0" stop-color="#262626"/><stop offset="0" stop-color="#252525"/><stop offset="0.06" stop-color="#141414"/><stop offset="0.13" stop-color="#090909"/><stop offset="0.23" stop-color="#020202"/><stop offset="0.5"/></linearGradient></defs><g id="Layer_2" data-name="Layer 2"><g id="Layer_1-2" data-name="Layer 1"><path class="cls-1" d="M.13.21H527a0,0,0,0,1,0,0V109.14a5.07,5.07,0,0,1-5.07,5.07H6.32A6.2,6.2,0,0,1,.13,108V.21a0,0,0,0,1,0,0Z"/><line class="cls-2" x1="0.13" y1="0.13" x2="526.98" y2="0.13"/><text class="cls-3" transform="translate(462.22 7.56)">BEND</text><text class="cls-3" transform="translate(473.9 15.38)">D</text><text class="cls-3" transform="translate(416.24 15.38)">A</text><text class="cls-3" transform="translate(416.64 67.71)">S</text><text class="cls-3" transform="translate(473.35 67.71)">R</text><g class="cls-4"><circle class="cls-5" cx="8.18" cy="106.48" r="4.51"/></g><g class="cls-4"><circle class="cls-5" cx="8.18" cy="106.48" r="1.95"/></g><line class="cls-6" x1="8.18" y1="103.8" x2="8.18" y2="105.94"/><g class="cls-4"><circle class="cls-5" cx="22.05" cy="106.48" r="4.51"/></g><g class="cls-4"><path class="cls-5" d="M20.45,107.61a2,2,0,0,1-.36-1.13,2,2,0,1,1,3.58,1.09"/></g><line class="cls-6" x1="20.76" y1="106.82" x2="20.76" y2="108.05"/><line class="cls-6" x1="23.46" y1="106.82" x2="23.46" y2="108.05"/><text class="cls-7" transform="translate(17.98 14.09)">Attack</text><text class="cls-7" transform="translate(75.62 14.09)">Decay</text><text class="cls-7" transform="translate(16.98 64.26)">Sustain</text><text class="cls-7" transform="translate(73.15 64.26)">Release</text><line class="cls-8" x1="57.17" y1="0.13" x2="57.17" y2="101.71"/><line class="cls-8" x1="114.21" y1="53.03" x2="0.13" y2="53.03"/><line class="cls-8" x1="469.87" y1="11.49" x2="469.87" y2="114.21"/><line class="cls-8" x1="526.91" y1="61.48" x2="412.82" y2="61.48"/><line class="cls-2" x1="114.29" y1="0.13" x2="114.29" y2="114.21"/><line class="cls-9" x1="122.82" y1="0.13" x2="122.82" y2="114.21"/><line class="cls-9" x1="131.35" y1="0.21" x2="131.35" y2="114.21"/><line class="cls-9" x1="139.88" y1="0.21" x2="139.88" y2="114.21"/><line class="cls-9" x1="148.41" y1="0.21" x2="148.41" y2="114.21"/><line class="cls-9" x1="156.94" y1="0.13" x2="156.94" y2="114.21"/><line class="cls-9" x1="165.47" y1="0.13" x2="165.47" y2="114.21"/><line class="cls-9" x1="174" y1="0.13" x2="174" y2="114.21"/><line class="cls-9" x1="182.53" y1="0.13" x2="182.53" y2="114.21"/><line class="cls-9" x1="191.06" y1="0.21" x2="191.06" y2="114.21"/><line class="cls-9" x1="199.59" y1="0.21" x2="199.59" y2="114.21"/><line class="cls-9" x1="208.11" y1="0.13" x2="208.11" y2="114.21"/><line class="cls-9" x1="216.64" y1="0.13" x2="216.64" y2="114.21"/><line class="cls-9" x1="225.17" y1="0.13" x2="225.17" y2="114.21"/><line class="cls-9" x1="233.7" y1="0.13" x2="233.7" y2="114.21"/><line class="cls-9" x1="242.23" y1="0.21" x2="242.23" y2="114.21"/><line class="cls-9" x1="250.76" y1="0.21" x2="250.76" y2="114.21"/><line class="cls-9" x1="259.29" y1="0.21" x2="259.29" y2="114.21"/><line class="cls-9" x1="267.82" y1="0.13" x2="267.82" y2="114.21"/><line class="cls-9" x1="276.35" y1="0.13" x2="276.35" y2="114.21"/><line class="cls-9" x1="284.88" y1="0.13" x2="284.88" y2="114.21"/><line class="cls-9" x1="293.41" y1="0.13" x2="293.41" y2="114.21"/><line class="cls-9" x1="301.94" y1="0.12" x2="301.94" y2="114.21"/><line class="cls-9" x1="310.47" y1="0.13" x2="310.47" y2="114.21"/><line class="cls-9" x1="319" y1="0.13" x2="319" y2="114.21"/><line class="cls-9" x1="327.52" y1="0.13" x2="327.52" y2="114.21"/><line class="cls-9" x1="336.05" y1="0.13" x2="336.05" y2="114.21"/><line class="cls-9" x1="344.58" y1="0.13" x2="344.58" y2="114.21"/><line class="cls-9" x1="353.11" y1="0.13" x2="353.11" y2="114.21"/><line class="cls-9" x1="361.64" y1="0.12" x2="361.64" y2="114.21"/><line class="cls-9" x1="370.17" y1="0.13" x2="370.17" y2="114.21"/><line class="cls-9" x1="378.7" y1="0.13" x2="378.7" y2="114.21"/><line class="cls-9" x1="387.23" y1="0.13" x2="387.23" y2="114.21"/><line class="cls-9" x1="395.76" y1="0.13" x2="395.76" y2="114.21"/><line class="cls-9" x1="404.29" y1="0.13" x2="404.29" y2="114.21"/><line class="cls-2" x1="412.82" y1="0.13" x2="412.82" y2="114.21"/><line class="cls-2" x1="114.21" y1="11.56" x2="412.82" y2="11.56"/><line class="cls-9" x1="114.29" y1="93.39" x2="412.82" y2="93.39"/><line class="cls-10" x1="114.29" y1="57.17" x2="412.82" y2="57.17"/></g></g></svg>