<svg xmlns="http://www.w3.org/2000/svg" xmlns:xlink="http://www.w3.org/1999/xlink" viewBox="0 0 527.11 114.34"><defs><style>.cls-1{fill:url(#linear-gradient);}.cls-10,.cls-2,.cls-3,.cls-9{fill:none;stroke-miterlimit:10;}.cls-2{stroke:#a6a8ab;stroke-linecap:round;stroke-width:0.25px;}.cls-10,.cls-3,.cls-9{stroke:#fff;}.cls-3{stroke-width:0.5px;}.cls-4{opacity:0.5;}.cls-5,.cls-6{font-size:7.2px;font-family:Avenir-Medium, Avenir;font-weight:500;}.cls-5{fill:#f1f1f2;letter-spacing:0.1em;}.cls-6{opacity:0.8;fill:#fff;}.cls-7{letter-spacing:-0.02em;}.cls-10,.cls-8{opacity:0.2;}.cls-10,.cls-9{stroke-width:0.75px;}</style><linearGradient id="linear-gradient" x1="263.55" y1="114.21" x2="263.55" y2="0.13" gradientUnits="userSpaceOnUse"><stop offset="0" stop-color="#262626"/><stop offset="0" stop-color="#252525"/><stop offset="0.06" stop-color="#141414"/><stop offset="0.13" stop-color="#090909"/><stop offset="0.23" stop-color="#020202"/><stop offset="0.5"/></linearGradient></defs><g id="Layer_2" data-name="Layer 2"><g id="Layer_1-2" data-name="Layer 1"><path class="cls-1" d="M.13.13H527a0,0,0,0,1,0,0v109a5.07,5.07,0,0,1-5.07,5.07H6.32A6.2,6.2,0,0,1,.13,108V.13A0,0,0,0,1,.13.13Z"/><line class="cls-2" x1="0.13" y1="0.13" x2="526.98" y2="0.13"/><line class="cls-3" x1="8.2" y1="52.48" x2="519.95" y2="52.48"/><g class="cls-4"><line class="cls-2" x1="8.2" y1="0.13" x2="8.2" y2="93.39"/><line class="cls-2" x1="16.73" y1="9.48" x2="16.73" y2="93.39"/><line class="cls-2" x1="25.25" y1="9.48" x2="25.25" y2="93.39"/><line class="cls-2" x1="33.78" y1="0.13" x2="33.78" y2="93.39"/><line class="cls-2" x1="42.31" y1="0.13" x2="42.31" y2="93.39"/><line class="cls-2" x1="50.84" y1="0.13" x2="50.84" y2="93.39"/><line class="cls-2" x1="59.37" y1="0.13" x2="59.37" y2="93.39"/><line class="cls-2" x1="67.9" y1="11.59" x2="67.9" y2="114.21"/><line class="cls-2" x1="76.43" y1="11.59" x2="76.43" y2="114.21"/><line class="cls-2" x1="84.96" y1="0.13" x2="84.96" y2="114.21"/><line class="cls-2" x1="93.49" y1="0.13" x2="93.49" y2="114.21"/><line class="cls-2" x1="102.02" y1="0.13" x2="102.02" y2="114.21"/><line class="cls-2" x1="110.55" y1="0.13" x2="110.55" y2="114.21"/><line class="cls-2" x1="119.08" y1="11.56" x2="119.08" y2="114.21"/><line class="cls-2" x1="127.61" y1="11.56" x2="127.61" y2="114.21"/><line class="cls-2" x1="136.13" y1="11.56" x2="136.13" y2="114.21"/><line class="cls-2" x1="144.66" y1="0.13" x2="144.66" y2="114.21"/><line class="cls-2" x1="153.19" y1="0.13" x2="153.19" y2="114.21"/><line class="cls-2" x1="161.72" y1="0.13" x2="161.72" y2="114.21"/><line class="cls-2" x1="170.25" y1="0.13" x2="170.25" y2="114.21"/><line class="cls-2" x1="178.78" y1="11.56" x2="178.78" y2="114.21"/><line class="cls-2" x1="187.31" y1="11.56" x2="187.31" y2="114.21"/><line class="cls-2" x1="195.84" y1="0.13" x2="195.84" y2="114.21"/><line class="cls-2" x1="204.37" y1="0.13" x2="204.37" y2="114.21"/><line class="cls-2" x1="212.9" y1="0.13" x2="212.9" y2="114.21"/><line class="cls-2" x1="221.43" y1="0.13" x2="221.43" y2="114.21"/><line class="cls-2" x1="229.96" y1="11.56" x2="229.96" y2="114.21"/><line class="cls-2" x1="238.49" y1="11.56" x2="238.49" y2="114.21"/><line class="cls-2" x1="247.01" y1="11.56" x2="247.01" y2="114.21"/><line class="cls-2" x1="255.54" y1="0.13" x2="255.54" y2="114.21"/><line class="cls-2" x1="264.07" y1="0.13" x2="264.07" y2="114.21"/><line class="cls-2" x1="272.6" y1="0.13" x2="272.6" y2="114.21"/><line class="cls-2" x1="281.13" y1="0.13" x2="281.13" y2="114.21"/><line class="cls-2" x1="289.66" y1="11.49" x2="289.66" y2="114.21"/><line class="cls-2" x1="298.19" y1="0.13" x2="298.19" y2="114.21"/><line class="cls-2" x1="306.72" y1="0.13" x2="306.72" y2="114.21"/><line class="cls-2" x1="315.25" y1="0.13" x2="315.25" y2="114.21"/><line class="cls-2" x1="323.78" y1="0.13" x2="323.78" y2="114.21"/><line class="cls-2" x1="332.31" y1="0.13" x2="332.31" y2="114.21"/><line class="cls-2" x1="340.84" y1="0.13" x2="340.84" y2="114.21"/><line class="cls-2" x1="349.37" y1="11.49" x2="349.37" y2="114.21"/><line class="cls-2" x1="357.89" y1="0.13" x2="357.89" y2="114.21"/><line class="cls-2" x1="366.42" y1="0.13" x2="366.42" y2="114.21"/><line class="cls-2" x1="374.95" y1="0.13" x2="374.95" y2="114.21"/><line class="cls-2" x1="383.48" y1="0.13" x2="383.48" y2="114.21"/><line class="cls-2" x1="392.01" y1="0.13" x2="392.01" y2="114.21"/><line class="cls-2" x1="400.54" y1="11.56" x2="400.54" y2="114.21"/><line class="cls-2" x1="409.07" y1="0.13" x2="409.07" y2="114.21"/><line class="cls-2" x1="417.6" y1="0.13" x2="417.6" y2="114.21"/><line class="cls-2" x1="426.13" y1="0.13" x2="426.13" y2="93.39"/><line class="cls-2" x1="434.66" y1="0.13" x2="434.66" y2="93.39"/><line class="cls-2" x1="443.19" y1="0.13" x2="443.19" y2="93.39"/><line class="cls-2" x1="451.72" y1="9.48" x2="451.72" y2="93.39"/><line class="cls-2" x1="460.25" y1="9.48" x2="460.25" y2="93.39"/><line class="cls-2" x1="468.77" y1="0.13" x2="468.77" y2="93.39"/><line class="cls-2" x1="477.3" y1="0.13" x2="477.3" y2="93.39"/><line class="cls-2" x1="485.83" y1="0.13" x2="485.83" y2="93.39"/><line class="cls-2" x1="494.36" y1="0.13" x2="494.36" y2="93.39"/><line class="cls-2" x1="502.89" y1="11.49" x2="502.89" y2="93.39"/><line class="cls-2" x1="511.42" y1="11.49" x2="511.42" y2="93.39"/><line class="cls-2" x1="519.95" y1="0.13" x2="519.95" y2="93.39"/><line class="cls-2" x1="0.13" y1="11.56" x2="526.98" y2="11.56"/><line class="cls-2" x1="0.13" y1="93.39" x2="526.98" y2="93.39"/></g><text class="cls-5" transform="translate(11.57 8.75)">30Hz</text><text class="cls-5" transform="translate(65.87 8.75)">50Hz</text><text class="cls-5" transform="translate(117.81 8.75)">100Hz</text><text class="cls-5" transform="translate(172.11 8.75)">200Hz</text><text class="cls-5" transform="translate(226.41 8.75)">500Hz</text><text class="cls-5" transform="translate(287.79 8.75)">1K</text><text class="cls-5" transform="translate(342.09 8.75)">2K</text><text class="cls-5" transform="translate(396.39 8.75)">5K</text><text class="cls-5" transform="translate(448.33 8.75)">10K</text><text class="cls-5" transform="translate(502.63 8.75)">20K</text><text class="cls-6" transform="translate(422.14 108.72)">F<tspan class="cls-7" x="4.13" y="0">r</tspan><tspan x="6.67" y="0">eq</tspan></text><text class="cls-6" transform="translate(457.77 108.72)">Gain</text><text class="cls-6" transform="translate(497.94 108.72)">Q</text><g class="cls-8"><circle class="cls-9" cx="12.98" cy="104.21" r="4.51"/></g><g class="cls-8"><circle class="cls-9" cx="12.98" cy="104.21" r="1.95"/></g><line class="cls-10" x1="12.98" y1="101.53" x2="12.98" y2="103.68"/><g class="cls-8"><circle class="cls-9" cx="26.84" cy="104.21" r="4.51"/></g><g class="cls-8"><path class="cls-9" d="M25.25,105.34a1.93,1.93,0,0,1-.36-1.13,2,2,0,1,1,3.57,1.09"/></g><line class="cls-10" x1="25.55" y1="104.55" x2="25.55" y2="105.78"/><line class="cls-10" x1="28.26" y1="104.55" x2="28.26" y2="105.78"/></g></g></svg>