<svg xmlns="http://www.w3.org/2000/svg" xmlns:xlink="http://www.w3.org/1999/xlink" viewBox="0 0 527.11 114.33"><defs><style>.cls-1{fill:url(#linear-gradient);}.cls-14,.cls-2,.cls-5{opacity:0.4;}.cls-11,.cls-2,.cls-5{font-size:7.2px;fill:#fff;}.cls-11,.cls-2,.cls-5,.cls-8{font-family:Avenir-Medium, Avenir;font-weight:500;}.cls-2{letter-spacing:0.05em;}.cls-3{letter-spacing:0.03em;}.cls-4,.cls-5{letter-spacing:0.05em;}.cls-16,.cls-17,.cls-6,.cls-7{fill:none;}.cls-6{stroke:#a6a8ab;stroke-width:0.25px;}.cls-17,.cls-6{stroke-linecap:round;}.cls-16,.cls-17,.cls-6{stroke-miterlimit:10;}.cls-8{font-size:5.5px;fill:#a6a8ab;letter-spacing:0.1em;opacity:0.8;}.cls-9{letter-spacing:0.05em;}.cls-10{letter-spacing:0.1em;}.cls-11{opacity:0.8;}.cls-12{letter-spacing:-0.02em;}.cls-13{letter-spacing:0em;}.cls-14{fill:#4b4b4c;}.cls-15{opacity:0.2;}.cls-16,.cls-17{stroke:#fff;}.cls-16{stroke-width:0.75px;}.cls-17{stroke-width:0.5px;}</style><linearGradient id="linear-gradient" x1="263.55" y1="114.21" x2="263.55" y2="0.12" gradientUnits="userSpaceOnUse"><stop offset="0" stop-color="#262626"/><stop offset="0" stop-color="#252525"/><stop offset="0.06" stop-color="#141414"/><stop offset="0.13" stop-color="#090909"/><stop offset="0.23" stop-color="#020202"/><stop offset="0.5"/><stop offset="0.77" stop-color="#020202"/><stop offset="0.87" stop-color="#090909"/><stop offset="0.94" stop-color="#141414"/><stop offset="1" stop-color="#252525"/><stop offset="1" stop-color="#262626"/></linearGradient></defs><g id="Layer_2" data-name="Layer 2"><g id="Layer_1-2" data-name="Layer 1"><path class="cls-1" d="M.13.12V108a6.2,6.2,0,0,0,6.19,6.2H521.91a5.07,5.07,0,0,0,5.07-5.07V.12Z"/><text class="cls-2" transform="translate(94.74 11.56)">Comp<tspan class="cls-3" x="21.32" y="0">r</tspan><tspan class="cls-4" x="24.21" y="0">essor</tspan></text><text class="cls-5" transform="translate(293.71 11.56)">Reverb</text><text class="cls-2" transform="translate(443.33 11.56)">Delay</text><line class="cls-6" x1="0.13" y1="0.13" x2="526.98" y2="0.13"/><line class="cls-6" x1="379.88" y1="0.13" x2="379.88" y2="114.21"/><line class="cls-6" x1="232.77" y1="0.13" x2="232.77" y2="114.21"/><rect class="cls-7" x="0.13" y="0.13" width="232.65" height="114.08"/><rect class="cls-7" x="232.77" y="0.13" width="147.1" height="114.08"/><rect class="cls-7" x="379.88" y="0.13" width="147.1" height="114.08"/><text class="cls-8" transform="translate(291.84 47.95)">Dry / <tspan class="cls-9" x="17.37" y="0">W</tspan><tspan class="cls-10" x="22.96" y="0">et</tspan></text><text class="cls-11" transform="translate(241.83 74.8)">P<tspan class="cls-12" x="4.27" y="0">r</tspan><tspan x="6.8" y="0">e Delay</tspan></text><text class="cls-11" transform="translate(282.15 74.8)">Decay</text><text class="cls-11" transform="translate(320.48 74.8)">Size</text><text class="cls-11" transform="translate(352.8 74.8)">Color</text><text class="cls-11" transform="translate(17.33 74.8)">Ratio</text><text class="cls-11" transform="translate(73.26 74.8)">Attack</text><text class="cls-11" transform="translate(136.42 74.8)">Release</text><text class="cls-11" transform="translate(199.79 74.8)">Gain</text><text class="cls-11" transform="translate(146.91 30.82)">Th<tspan class="cls-12" x="8.14" y="0">r</tspan><tspan class="cls-13" x="10.67" y="0">eshold</tspan></text><text class="cls-11" transform="translate(198.99 30.82)">Knee</text><rect class="cls-14" x="244.28" y="20.8" width="126.26" height="14.06" rx="4.06"/><rect class="cls-14" x="10.98" y="20.76" width="126.26" height="14.06" rx="4.06"/><text class="cls-8" transform="translate(405.6 47.95)">Dry / <tspan class="cls-9" x="17.37" y="0">W</tspan><tspan class="cls-10" x="22.96" y="0">et</tspan></text><text class="cls-8" transform="translate(467.87 47.95)">Dry / <tspan class="cls-9" x="17.37" y="0">W</tspan><tspan class="cls-10" x="22.96" y="0">et</tspan></text><text class="cls-11" transform="translate(394.15 74.8)">Time</text><text class="cls-11" transform="translate(421 74.8)">Feedback</text><text class="cls-11" transform="translate(462.73 74.8)">Color</text><text class="cls-11" transform="translate(500.52 74.8)">Pan</text><rect class="cls-14" x="389" y="20.8" width="126.26" height="14.06" rx="4.06"/><g class="cls-15"><circle class="cls-16" cx="12.33" cy="107.46" r="4.51"/><circle class="cls-16" cx="12.33" cy="107.46" r="1.95"/><line class="cls-16" x1="12.33" y1="104.78" x2="12.33" y2="106.93"/></g><g class="cls-15"><circle class="cls-16" cx="26.2" cy="107.46" r="4.51"/><path class="cls-16" d="M24.6,108.59a2,2,0,0,1-.36-1.13,2,2,0,0,1,3.91,0,1.92,1.92,0,0,1-.33,1.09"/><line class="cls-16" x1="24.9" y1="107.8" x2="24.9" y2="109.03"/><line class="cls-16" x1="27.61" y1="107.8" x2="27.61" y2="109.03"/></g><g class="cls-15"><circle class="cls-17" cx="519.94" cy="9.75" r="4.51"/><circle class="cls-17" cx="519.94" cy="9.75" r="1.95"/><line class="cls-17" x1="519.94" y1="7.07" x2="519.94" y2="9.21"/></g><g class="cls-15"><circle class="cls-17" cx="373.25" cy="9.75" r="4.51"/><circle class="cls-17" cx="373.25" cy="9.75" r="1.95"/><line class="cls-17" x1="373.25" y1="7.07" x2="373.25" y2="9.21"/></g><g class="cls-15"><circle class="cls-17" cx="225.3" cy="9.75" r="4.51"/><circle class="cls-17" cx="225.3" cy="9.75" r="1.95"/><line class="cls-17" x1="225.3" y1="7.07" x2="225.3" y2="9.21"/></g></g></g></svg>