<svg xmlns="http://www.w3.org/2000/svg" viewBox="0 0 12.06 9.88"><defs><style>.cls-1{fill:#fff;opacity:0.1;}.cls-2{fill:none;stroke:#32fee5;stroke-linecap:round;stroke-linejoin:round;stroke-width:0.1px;}</style></defs><g id="Layer_2" data-name="Layer 2"><g id="Layer_1-2" data-name="Layer 1"><rect class="cls-1" width="12.06" height="9.88" rx="0.92"/><path class="cls-2" d="M11,5.29c-.25-1-.44-.53-.44-.53l-.31.76c-.07.18-.18.16-.25,0l-.28-.9c-.07-.23-.19-.23-.27,0L9,6c-.08.24-.21.21-.28-.07l-.3-1.25c-.07-.31-.23-.31-.3,0L7.76,6.3c-.09.38-.28.29-.33-.15l-.2-2c-.05-.53-.31-.5-.35,0L6.71,6.59c0,.56-.32.57-.36,0L6,2.28c0-.58-.33-.54-.36.05l-.19,4c0,.61-.32.63-.36,0L4.92,3.15c0-.55-.3-.6-.35-.06L4.29,5.84c-.06.55-.33.49-.36-.08L3.86,4.2c0-.54-.28-.63-.35-.13l-.2,1.38c-.06.46-.29.44-.34,0l-.09-.78c0-.46-.27-.49-.34,0l-.14,1c-.07.44-.29.42-.34,0L2,4.87c-.05-.45-.26-.49-.33-.07l-.12.55s-.25,1-.51-.66"/></g></g></svg>