<svg xmlns="http://www.w3.org/2000/svg" viewBox="0 0 12.06 10.26"><defs><style>.cls-1{opacity:0.5;}.cls-2{fill:#32fee5;}</style></defs><g id="Layer_2" data-name="Layer 2"><g id="Layer_1-2" data-name="Layer 1"><g class="cls-1"><path class="cls-2" d="M0,1.64H12.06a0,0,0,0,1,0,0V8.85a1.42,1.42,0,0,1-1.42,1.42H1.42A1.42,1.42,0,0,1,0,8.85V1.64A0,0,0,0,1,0,1.64Z"/><path class="cls-2" d="M3.93.39V.25A.25.25,0,0,0,3.68,0H.25A.25.25,0,0,0,0,.25v1H12.06V.88a.25.25,0,0,0-.25-.24H4.18A.25.25,0,0,1,3.93.39Z"/></g></g></g></svg>