<svg xmlns="http://www.w3.org/2000/svg" xmlns:xlink="http://www.w3.org/1999/xlink" viewBox="0 0 86.81 307.72"><defs><style>.cls-1{fill:url(#linear-gradient);}.cls-2{fill:#fff;opacity:0.1;}.cls-3{opacity:0.2;}.cls-4{fill:none;stroke:#000;stroke-miterlimit:10;stroke-width:0.25px;}.cls-5{font-size:15.34px;font-family:Avenir-Heavy, Avenir;font-weight:800;letter-spacing:0.1em;}.cls-6{opacity:0.4;}</style><linearGradient id="linear-gradient" x1="43.41" y1="307.72" x2="43.41" gradientUnits="userSpaceOnUse"><stop offset="0" stop-color="#262626"/><stop offset="0.06" stop-color="#161616"/><stop offset="0.15" stop-color="#0a0a0a"/><stop offset="0.26" stop-color="#020202"/><stop offset="0.5"/><stop offset="0.72" stop-color="#020202"/><stop offset="0.84" stop-color="#0b0b0b"/><stop offset="0.94" stop-color="#181818"/><stop offset="1" stop-color="#262626"/></linearGradient></defs><g id="Layer_2" data-name="Layer 2"><g id="Layer_1-2" data-name="Layer 1"><path class="cls-1" d="M0,0H86.81a0,0,0,0,1,0,0V307.72a0,0,0,0,1,0,0H4.23A4.23,4.23,0,0,1,0,303.49V0A0,0,0,0,1,0,0Z"/><path class="cls-2" d="M0,0H86.81a0,0,0,0,1,0,0V307.72a0,0,0,0,1,0,0H4.17A4.17,4.17,0,0,1,0,303.55V0A0,0,0,0,1,0,0Z"/><path class="cls-2" d="M0,297.06H86.81a0,0,0,0,1,0,0v10.66a0,0,0,0,1,0,0H4a4,4,0,0,1-4-4v-6.68A0,0,0,0,1,0,297.06Z"/><rect class="cls-3" y="155.74" width="86.81" height="10.66"/><line class="cls-4" x1="86.81" y1="297.06" y2="297.06"/><rect class="cls-3" y="26.77" width="86.81" height="10.66"/><rect class="cls-2" y="152.73" width="86.81" height="3"/><text class="cls-5" transform="translate(14.7 19.54)">ORION</text><rect width="86.81" height="26.77"/><rect class="cls-2" x="19.98" y="230.22" width="130.66" height="3" transform="translate(317.04 146.42) rotate(90)"/><rect class="cls-2" x="28.03" y="93.35" width="114.57" height="3" transform="translate(180.16 9.54) rotate(90)"/></g></g></svg>