<svg xmlns="http://www.w3.org/2000/svg" viewBox="0 0 9.12 9.48"><g id="Layer_2" data-name="Layer 2"><g id="Layer_1-2" data-name="Layer 1"><path d="M5.57,9.48h-2a5.28,5.28,0,0,1-.21-.78c0-.42-.1-.82-.6-1a.46.46,0,0,1-.15-.09.36.36,0,0,0-.44-.05c-.28.13-.56.23-.85.35a.28.28,0,0,1-.4-.13L.06,6.36a.28.28,0,0,1,.08-.42c.16-.12.32-.26.49-.38s.53-.41.39-.81a.38.38,0,0,1,0-.21.38.38,0,0,0-.19-.47C.61,3.9.4,3.71.17,3.54a.31.31,0,0,1-.09-.48C.3,2.68.51,2.3.73,1.93c.31-.53.33-.57.86-.29A1.16,1.16,0,0,0,3,1.54a.6.6,0,0,0,.22-.31A7.33,7.33,0,0,0,3.39.29.3.3,0,0,1,3.73,0H5.39a.3.3,0,0,1,.34.29,1.87,1.87,0,0,1,0,.32,1.08,1.08,0,0,0,.77,1.2.7.7,0,0,0,.4,0c.3-.09.59-.23.89-.35a.28.28,0,0,1,.39.14l.83,1.44a.3.3,0,0,1-.1.46l-.72.57a1.49,1.49,0,0,0-.09,1.17l.14.11c.22.17.43.35.66.51A.33.33,0,0,1,9,6.41c-.21.35-.41.72-.62,1.07-.31.52-.21.68-1,.32a1.11,1.11,0,0,0-1.32.06.7.7,0,0,0-.31.46C5.77,8.71,5.66,9.1,5.57,9.48ZM2.87,4.71a1.69,1.69,0,0,0,3.38,0A1.66,1.66,0,0,0,4.57,3,1.65,1.65,0,0,0,2.87,4.71Z"/></g></g></svg>