<svg xmlns="http://www.w3.org/2000/svg" viewBox="0 0 9.21 9.21"><defs><style>.cls-1{fill:#fff;}</style></defs><g id="Layer_2" data-name="Layer 2"><g id="Layer_1-2" data-name="Layer 1"><circle cx="4.6" cy="4.6" r="4.6"/><path class="cls-1" d="M4.17,5.38A2.06,2.06,0,0,1,4.2,5a.78.78,0,0,1,.09-.27,1.88,1.88,0,0,1,.18-.24,3.54,3.54,0,0,1,.28-.29L5,3.92a1.55,1.55,0,0,0,.24-.27,1.28,1.28,0,0,0,.17-.3A.86.86,0,0,0,5.48,3a1,1,0,0,0-.24-.67.82.82,0,0,0-.65-.25,1,1,0,0,0-.7.25A1.1,1.1,0,0,0,3.56,3L2.8,2.9A1.71,1.71,0,0,1,3,2.29a1.57,1.57,0,0,1,.39-.46A1.52,1.52,0,0,1,4,1.56a2,2,0,0,1,.65-.1,1.91,1.91,0,0,1,.64.1,1.53,1.53,0,0,1,.52.28,1.3,1.3,0,0,1,.35.48A1.44,1.44,0,0,1,6.24,3a1.54,1.54,0,0,1-.08.5A2.25,2.25,0,0,1,6,3.87a2.64,2.64,0,0,1-.31.37l-.36.35-.22.22A.76.76,0,0,0,4.94,5a.54.54,0,0,0-.05.22,2.36,2.36,0,0,0,0,.3v.39h-.7Zm.35,1.24a.52.52,0,0,1,.36.14A.49.49,0,0,1,5,7.12a.5.5,0,0,1-.16.36.48.48,0,0,1-.7,0A.5.5,0,0,1,4,7.12a.49.49,0,0,1,.15-.36A.52.52,0,0,1,4.52,6.62Z"/></g></g></svg>