<svg xmlns="http://www.w3.org/2000/svg" xmlns:xlink="http://www.w3.org/1999/xlink" viewBox="0 0 440.04 41.3"><defs><style>.cls-1{fill:url(#linear-gradient);}.cls-2{fill:#fff;}.cls-3,.cls-5{stroke-miterlimit:10;}.cls-3{stroke-width:0.3px;stroke:url(#linear-gradient-2);}.cls-4{fill:#a6a8ab;opacity:0.8;}.cls-5{fill:none;stroke:#a6a8ab;stroke-linecap:round;stroke-width:0.5px;}</style><linearGradient id="linear-gradient" x1="220.02" y1="41.3" x2="220.02" gradientUnits="userSpaceOnUse"><stop offset="0" stop-color="#262626"/><stop offset="0" stop-color="#252525"/><stop offset="0.06" stop-color="#141414"/><stop offset="0.13" stop-color="#090909"/><stop offset="0.23" stop-color="#020202"/><stop offset="0.5"/></linearGradient><linearGradient id="linear-gradient-2" x1="11.05" y1="19.96" x2="25.47" y2="19.96" gradientUnits="userSpaceOnUse"><stop offset="0" stop-color="#808184"/><stop offset="0.29" stop-color="#7e7f82" stop-opacity="0.98"/><stop offset="0.64" stop-color="#77787b" stop-opacity="0.91"/><stop offset="1" stop-color="#6d6e70" stop-opacity="0.8"/></linearGradient></defs><g id="Layer_2" data-name="Layer 2"><g id="Layer_1-2" data-name="Layer 1"><rect class="cls-1" width="440.04" height="41.3"/><path class="cls-2" d="M18.26,12.9A7.06,7.06,0,1,0,25.32,20,7.06,7.06,0,0,0,18.26,12.9Z"/><path class="cls-3" d="M18.26,12.9A7.06,7.06,0,1,0,25.32,20,7.06,7.06,0,0,0,18.26,12.9Zm4.38,6.63-3.95,3.24a.54.54,0,0,1-.34.12.53.53,0,0,1-.34-.11l-4.12-3.24a.54.54,0,0,1-.09-.76.53.53,0,0,1,.76-.09l3.78,3,3.61-3a.54.54,0,0,1,.69.84Z"/><path class="cls-4" d="M84.48,9.93h1.37a1.58,1.58,0,0,1,.62.1,1.11,1.11,0,0,1,.38.26.88.88,0,0,1,.2.35,1.47,1.47,0,0,1,0,.76.88.88,0,0,1-.2.35,1.11,1.11,0,0,1-.38.26,1.58,1.58,0,0,1-.62.1H85v1.72h-.53ZM85,11.65h.7a1.53,1.53,0,0,0,.3,0,.62.62,0,0,0,.27-.09.5.5,0,0,0,.19-.19.77.77,0,0,0,0-.64.5.5,0,0,0-.19-.19.62.62,0,0,0-.27-.09l-.3,0H85Z"/><path class="cls-4" d="M89.11,9.93h.48l1.67,3.9h-.62l-.39-1H88.4l-.39,1H87.4Zm1,2.47-.73-1.79h0l-.74,1.79Z"/><path class="cls-4" d="M92.32,9.93H93l2.15,3.2h0V9.93h.53v3.9H95l-2.17-3.21h0v3.21h-.53Z"/><path class="cls-4" d="M91.37,26.4a1.14,1.14,0,0,0-.42-.33,1.2,1.2,0,0,0-.52-.12,1.47,1.47,0,0,0-.6.13,1.28,1.28,0,0,0-.46.34,1.64,1.64,0,0,0-.29.5,1.77,1.77,0,0,0,0,1.2,1.42,1.42,0,0,0,.29.49,1.29,1.29,0,0,0,.46.33,1.48,1.48,0,0,0,.61.12,1.25,1.25,0,0,0,.59-.14,1.4,1.4,0,0,0,.43-.38l.44.33-.15.18a1.82,1.82,0,0,1-.29.22,2.24,2.24,0,0,1-.44.2,1.79,1.79,0,0,1-.59.08,1.91,1.91,0,0,1-.84-.17,2,2,0,0,1-.63-.46,1.91,1.91,0,0,1-.4-.65,2.06,2.06,0,0,1-.14-.73,2.23,2.23,0,0,1,.15-.83,1.87,1.87,0,0,1,.42-.66,1.83,1.83,0,0,1,.64-.44,2.18,2.18,0,0,1,.82-.15,2,2,0,0,1,.76.15,1.4,1.4,0,0,1,.61.46Z"/><path class="cls-4" d="M62,25.56h.53V29h1.79v.5H62Z"/><path class="cls-4" d="M116.07,25.56h1.37a1.58,1.58,0,0,1,.62.1,1,1,0,0,1,.38.26.82.82,0,0,1,.2.35,1.73,1.73,0,0,1,0,.38,1.13,1.13,0,0,1-.06.36,1,1,0,0,1-.5.55,1.25,1.25,0,0,1-.4.12l1.11,1.78h-.66l-1-1.72h-.59v1.72h-.53Zm.53,1.72h.69a1.55,1.55,0,0,0,.31,0,.78.78,0,0,0,.27-.09.5.5,0,0,0,.19-.19.77.77,0,0,0,0-.64.44.44,0,0,0-.19-.19.62.62,0,0,0-.27-.09,1.55,1.55,0,0,0-.31,0h-.69Z"/><line class="cls-5" x1="62.93" y1="19.96" x2="117.25" y2="19.96"/><path class="cls-4" d="M377.13,11.61h.78l1.24,3h0l1.23-3h.79v3.9h-.53v-3.2h0l-1.32,3.2H379l-1.31-3.2h0v3.2h-.53Z"/><path class="cls-4" d="M383.92,11.61h.48l1.67,3.9h-.62l-.39-1h-1.85l-.39,1h-.61Zm.95,2.47-.73-1.78h0l-.73,1.78Z"/><path class="cls-4" d="M387.24,14.7a.92.92,0,0,0,.37.31,1.06,1.06,0,0,0,.46.1.84.84,0,0,0,.27,0,.82.82,0,0,0,.25-.12.68.68,0,0,0,.18-.2.57.57,0,0,0,.08-.29.41.41,0,0,0-.15-.34,1.29,1.29,0,0,0-.35-.2l-.46-.15a1.82,1.82,0,0,1-.47-.21,1.06,1.06,0,0,1-.35-.35,1.08,1.08,0,0,1-.15-.61,1.09,1.09,0,0,1,.31-.71,1.33,1.33,0,0,1,.41-.27,1.58,1.58,0,0,1,.61-.11,2.1,2.1,0,0,1,.61.09,1.09,1.09,0,0,1,.51.36l-.43.39a.85.85,0,0,0-.28-.25.91.91,0,0,0-.41-.09,1,1,0,0,0-.37.06.57.57,0,0,0-.23.15.59.59,0,0,0-.13.19.74.74,0,0,0,0,.19.46.46,0,0,0,.14.38,1.1,1.1,0,0,0,.35.22l.47.15a1.83,1.83,0,0,1,.46.18,1.07,1.07,0,0,1,.35.32.92.92,0,0,1,.15.55,1.19,1.19,0,0,1-.11.51,1.1,1.1,0,0,1-.29.38,1.37,1.37,0,0,1-.43.24,1.78,1.78,0,0,1-.53.08,1.9,1.9,0,0,1-.71-.13,1.21,1.21,0,0,1-.53-.41Z"/><path class="cls-4" d="M391.55,12.11H390.3v-.5h3v.5h-1.26v3.4h-.53Z"/><path class="cls-4" d="M396,11.61h.61l1.14,3.17h0L399,11.61h.58L398,15.51h-.49Z"/><path class="cls-4" d="M402.34,15.61a2,2,0,0,1-.82-.16,1.81,1.81,0,0,1-.64-.43,1.92,1.92,0,0,1-.42-.65,2.26,2.26,0,0,1,0-1.62,2,2,0,0,1,.42-.65,2,2,0,0,1,.64-.43,2.18,2.18,0,0,1,.82-.16,2.22,2.22,0,0,1,.82.16,2.06,2.06,0,0,1,.64.43,2,2,0,0,1,.42.65,2.26,2.26,0,0,1,0,1.62,1.92,1.92,0,0,1-1.06,1.08A2,2,0,0,1,402.34,15.61Zm0-.5a1.46,1.46,0,0,0,.6-.12,1.29,1.29,0,0,0,.46-.33,1.48,1.48,0,0,0,.3-.5,1.64,1.64,0,0,0,.11-.6,1.73,1.73,0,0,0-.11-.6,1.5,1.5,0,0,0-.76-.83,1.59,1.59,0,0,0-1.21,0,1.57,1.57,0,0,0-.46.34,1.44,1.44,0,0,0-.3.49,1.72,1.72,0,0,0-.1.6,1.64,1.64,0,0,0,.1.6,1.48,1.48,0,0,0,.3.5,1.39,1.39,0,0,0,.46.33A1.48,1.48,0,0,0,402.34,15.11Z"/><path class="cls-4" d="M405.68,11.61h.53V15H408v.49h-2.32Z"/><path class="cls-4" d="M421.6,21.53h1.25V20.28h.43v1.25h1.26V22h-1.26v1.26h-.43V22H421.6Z"/><line class="cls-5" x1="365.19" y1="21.64" x2="419.51" y2="21.64"/><line class="cls-5" x1="356.74" y1="21.64" x2="359.46" y2="21.64"/></g></g></svg>