<?xml version="1.0" encoding="UTF-8" standalone="no"?><!DOCTYPE svg PUBLIC "-//W3C//DTD SVG 1.1//EN" "http://www.w3.org/Graphics/SVG/1.1/DTD/svg11.dtd"><svg width="100%" height="100%" viewBox="0 0 1834 1171" version="1.1" xmlns="http://www.w3.org/2000/svg" xmlns:xlink="http://www.w3.org/1999/xlink" xml:space="preserve" xmlns:serif="http://www.serif.com/" style="fill-rule:evenodd;clip-rule:evenodd;stroke-linecap:round;"><g id="PrimaryWindow"><g id="MainLayer"><rect x="0" y="0" width="1833.56" height="998.53" style="fill:#0c0c0c;"/><g id="Instruments_Volumes"><path d="M322.211,108.157l-12.489,0" style="fill:none;fill-rule:nonzero;stroke:#9e9e9e;stroke-width:2.4px;"/><text x="569.903px" y="114.758px" style="font-family:'ArialMT', 'Arial', sans-serif;font-size:31.674px;fill:#8a8a8a;">+</text><text x="386.999px" y="74.133px" style="font-family:'ArialMT', 'Arial', sans-serif;font-size:25.501px;fill:#8e8e8e;">I<tspan x="395.24px 416.116px 435.423px 452.62px 460.862px 480.169px 502.628px " y="74.133px 74.133px 74.133px 74.133px 74.133px 74.133px 74.133px ">NST VOL</tspan></text></g><g id="Instruments_Pans"><path d="M221.651,921.53c-0.559,-0.708 -1.278,-1.273 -2.098,-1.649c-0.81,-0.392 -1.698,-0.597 -2.598,-0.599c-1.033,0.003 -2.055,0.224 -2.997,0.649c-0.884,0.386 -1.67,0.967 -2.298,1.699c-0.627,0.74 -1.117,1.586 -1.449,2.498c-0.697,1.936 -0.697,4.057 0,5.994c0.313,0.906 0.806,1.738 1.449,2.448c0.635,0.713 1.42,1.276 2.298,1.649c0.962,0.413 2.001,0.617 3.047,0.599c1.025,0.012 2.038,-0.228 2.948,-0.699c0.839,-0.478 1.571,-1.124 2.148,-1.899l2.198,1.649l-0.749,0.899c-0.445,0.414 -0.931,0.782 -1.449,1.099c-0.695,0.411 -1.432,0.746 -2.198,0.999c-0.953,0.297 -1.95,0.432 -2.948,0.4c-1.445,0.038 -2.88,-0.252 -4.196,-0.849c-1.19,-0.552 -2.259,-1.333 -3.147,-2.298c-0.878,-0.937 -1.557,-2.042 -1.998,-3.247c-0.453,-1.164 -0.689,-2.399 -0.7,-3.647c-0.016,-1.417 0.239,-2.825 0.75,-4.147c0.459,-1.234 1.174,-2.358 2.098,-3.297c0.896,-0.953 1.986,-1.702 3.197,-2.198c1.305,-0.511 2.695,-0.765 4.096,-0.749c1.303,0 2.592,0.255 3.797,0.749c1.209,0.469 2.264,1.265 3.047,2.298l-2.248,1.649Z" style="fill:#a6a8ab;fill-opacity:0.8;fill-rule:nonzero;"/><path d="M74.933,917.334l2.647,0l0,17.184l8.942,0l0,2.498l-11.589,0l0,-19.682Z" style="fill:#a6a8ab;fill-opacity:0.8;fill-rule:nonzero;"/><path d="M345.041,917.334l6.843,0c1.056,-0.043 2.109,0.127 3.098,0.499c0.725,0.28 1.375,0.724 1.898,1.299c0.473,0.491 0.817,1.092 0.999,1.748c0.07,0.631 0.07,1.268 0,1.899c-0.002,0.612 -0.103,1.219 -0.3,1.798c-0.448,1.202 -1.343,2.187 -2.497,2.748c-0.628,0.31 -1.304,0.513 -1.999,0.599l5.545,8.892l-3.297,0l-4.995,-8.592l-2.948,0l0,8.592l-2.647,0l0.3,-19.482Zm2.647,8.592l3.447,0c0.515,0.052 1.034,0.052 1.549,0c0.473,-0.066 0.93,-0.218 1.348,-0.45c0.398,-0.223 0.726,-0.552 0.95,-0.949c0.463,-1.014 0.463,-2.182 0,-3.197c-0.21,-0.407 -0.542,-0.739 -0.95,-0.949c-0.408,-0.252 -0.87,-0.406 -1.348,-0.45c-0.515,-0.051 -1.034,-0.051 -1.549,0l-3.447,0l0,5.995Z" style="fill:#a6a8ab;fill-opacity:0.8;fill-rule:nonzero;"/><text x="147.34px" y="857.825px" style="font-family:'ArialMT', 'Arial', sans-serif;font-size:25.517px;fill:#898989;">I<tspan x="155.189px 175.072px 193.461px 209.84px 217.69px 225.539px 241.918px 260.307px " y="857.825px 857.825px 857.825px 857.825px 857.825px 857.825px 857.825px 857.825px ">NST  PAN</tspan></text></g><g id="Solo"></g><g id="Mute"></g><path id="Curve" d="M586.268,799.283l713.146,0" style="fill:none;fill-rule:nonzero;stroke:#363636;stroke-width:4.17px;stroke-linecap:butt;"/></g><g id="Footer_Layer"><rect x="0" y="998.009" width="1833.56" height="172.089" style="fill:url(#_Linear1);"/><g id="Master_Volume"><g><text x="1560.68px" y="1064.37px" style="font-family:'ArialMT', 'Arial', sans-serif;font-size:25.314px;fill:#898989;">M<tspan x="1581.93px 1599px 1616.08px 1631.29px 1638.57px 1645.86px 1662.93px 1682.8px " y="1064.37px 1064.37px 1064.37px 1064.37px 1064.37px 1064.37px 1064.37px 1064.37px ">AST  VOL</tspan></text><path d="M1756.72,1088.28l5.846,0l0,-5.767l2.011,0l0,5.767l5.893,0l0,2.169l-5.893,0l0,5.814l-2.011,0l0,-5.814l-5.846,0l0,-2.169Z" style="fill:#a6a8ab;fill-opacity:0.8;fill-rule:nonzero;"/><path d="M1486.46,1091.76l11.333,0" style="fill:none;fill-rule:nonzero;stroke:#8f8f8f;stroke-width:2.08px;"/></g></g></g></g><defs><linearGradient id="_Linear1" x1="0" y1="0" x2="1" y2="0" gradientUnits="userSpaceOnUse" gradientTransform="matrix(1.05374e-14,-172.089,172.089,1.05374e-14,916.778,1170.1)"><stop offset="0" style="stop-color:#262626;stop-opacity:1"/><stop offset="0" style="stop-color:#252525;stop-opacity:1"/><stop offset="0.06" style="stop-color:#141414;stop-opacity:1"/><stop offset="0.13" style="stop-color:#090909;stop-opacity:1"/><stop offset="0.23" style="stop-color:#020202;stop-opacity:1"/><stop offset="0.5" style="stop-color:#000;stop-opacity:1"/><stop offset="1" style="stop-color:#000;stop-opacity:1"/></linearGradient></defs></svg>